<svg id="Layer_1" data-name="Layer 1" xmlns="http://www.w3.org/2000/svg" viewBox="0 0 678.75 234.03"><defs><style>.cls-1{fill:#fff;}.cls-2{fill:#013369;}.cls-3{fill:#064d8e;}.cls-4{fill:#dae1e9;}</style></defs><title>NFLF_Lockup_3D_Negative_RGB</title><path class="cls-1" d="M394.81,481.34c-2.2,0-3.17-1-3.17-3.17v-57c0-2.2,1-3.17,3.17-3.17H404a6,6,0,0,1,5.19,2.37l17.07,19.54V421.15c0-2.2,1-3.17,3.17-3.17h13.2c2.2,0,3.17,1,3.17,3.17v57c0,2.2-1,3.17-3.17,3.17h-13.2c-2.2,0-3.17-1-3.17-3.17V467.35l-15.05-18.22v29c0,2.2-1,3.17-3.16,3.17Z" transform="translate(-161.07 -383.51)"/><path class="cls-1" d="M467.67,481.34c-2.2,0-3.17-1-3.17-3.17v-57c0-2.2,1-3.17,3.17-3.17h39.25c2.2,0,3.16,1,3.16,3.17v10.47c0,2.2-1,3.17-3.16,3.17H484.48v9.15h15.31c2.2,0,3.17,1,3.17,3.17v10.56c0,2.2-1,3.16-3.17,3.16H484.48v17.34c0,2.2-1,3.17-3.17,3.17Z" transform="translate(-161.07 -383.51)"/><path class="cls-1" d="M528.65,481.34c-2.2,0-3.16-1-3.16-3.17v-57c0-2.2,1-3.17,3.16-3.17h13.64c2.2,0,3.17,1,3.17,3.17v43.56h12.06V450.45c0-2.2,1-3.17,3.16-3.17h12.76c2.2,0,3.17,1,3.17,3.17v27.72c0,2.2-1,3.17-3.17,3.17Z" transform="translate(-161.07 -383.51)"/><path class="cls-1" d="M394.81,577.34c-2.2,0-3.17-1-3.17-3.17v-57c0-2.2,1-3.17,3.17-3.17h39.24c2.2,0,3.17,1,3.17,3.17v10.47c0,2.2-1,3.17-3.17,3.17H411.61v9.15h15.32c2.19,0,3.16,1,3.16,3.17v10.56c0,2.2-1,3.16-3.16,3.16H411.61v17.34c0,2.2-1,3.17-3.16,3.17Z" transform="translate(-161.07 -383.51)"/><path class="cls-1" d="M464.33,577.34H451.39c-2.2,0-3.17-1-3.17-3.17V550.94c0-3.52,1.06-7.92,3.43-14.08l7.66-20c.7-2,2.11-2.9,4.49-2.9h23.67c2.29,0,3.7.88,4.4,2.9l7.66,20C501.9,543,503,547.42,503,550.94v23.23c0,2.2-1,3.17-3.17,3.17H486.5c-2.37,0-3.43-1-3.43-3.17V561.85H467.49v12.32C467.49,576.37,466.53,577.34,464.33,577.34Zm4-31.51h13.82l-4.14-13.37c-.44-1.06-1-1.5-1.67-1.5h-2.2c-.7,0-1.23.44-1.67,1.5Z" transform="translate(-161.07 -383.51)"/><path class="cls-1" d="M523.55,577.34c-2.2,0-3.17-1-3.17-3.17v-57c0-2.2,1-3.17,3.17-3.17h9.15a6,6,0,0,1,5.19,2.37L555,535.89V517.15c0-2.2,1-3.17,3.16-3.17h13.2c2.2,0,3.17,1,3.17,3.17v57c0,2.2-1,3.17-3.17,3.17h-13.2c-2.2,0-3.16-1-3.16-3.17V563.35l-15.05-18.22v29c0,2.2-1,3.17-3.17,3.17Z" transform="translate(-161.07 -383.51)"/><path class="cls-1" d="M608.91,577.34c-2.2,0-3.17-1-3.17-3.17V531H592.81c-2.2,0-3.17-1-3.17-3.17V517.15c0-2.2,1-3.17,3.17-3.17h46.46c2.2,0,3.17,1,3.17,3.17v10.64c0,2.2-1,3.17-3.17,3.17H626.33v43.21c0,2.2-1,3.17-3.17,3.17Z" transform="translate(-161.07 -383.51)"/><path class="cls-1" d="M668.84,577.34H655.9c-2.2,0-3.17-1-3.17-3.17V550.94c0-3.52,1.06-7.92,3.43-14.08l7.66-20c.7-2,2.11-2.9,4.49-2.9H692c2.29,0,3.7.88,4.4,2.9l7.66,20c2.37,6.16,3.43,10.56,3.43,14.08v23.23c0,2.2-1,3.17-3.17,3.17H691c-2.37,0-3.43-1-3.43-3.17V561.85H672v12.32C672,576.37,671,577.34,668.84,577.34Zm4-31.51H686.7l-4.14-13.37c-.44-1.06-1-1.5-1.67-1.5h-2.2c-.7,0-1.23.44-1.67,1.5Z" transform="translate(-161.07 -383.51)"/><path class="cls-1" d="M726.48,577.34c-2.2,0-3.17-1-3.17-3.17v-10.3c0-2.2,1-3.16,3.17-3.16h23.67a2.3,2.3,0,0,0,2.29-2.56c0-2-.8-2.81-2.29-3L737,553.31c-8.27-1.23-13.64-4.75-13.64-14.6v-9.24c0-10,6.77-15.49,18.21-15.49h24.64c2.2,0,3.17,1,3.17,3.17v10.47c0,2.2-1,3.17-3.17,3.17h-20.5a2.34,2.34,0,0,0-2.38,2.64,2.58,2.58,0,0,0,2.38,2.81L758.77,538c8.27,1.23,13.73,4.75,13.73,14.61v9.24c0,10-6.86,15.49-18.22,15.49Z" transform="translate(-161.07 -383.51)"/><path class="cls-1" d="M805.68,577.34c-2.29,0-3.17-1-3.17-3.17V562.91l-13.47-18c-2.72-3.61-3.34-5.37-3.34-10.83V517.15c0-2.2,1-3.17,3.17-3.17h13.55c2.2,0,3.17,1,3.17,3.17v14.43a6.28,6.28,0,0,0,.79,3.69l4,6.34c.61,1.06,1.14,1.5,2.11,1.5h.88c1,0,1.5-.44,2.11-1.5l4.05-6.34a6.28,6.28,0,0,0,.79-3.69V517.15c0-2.2,1-3.17,3.17-3.17h13.11c2.2,0,3.17,1,3.17,3.17V534c0,5.46-.7,7.22-3.34,10.83L823.1,563v11.18c0,2.2-1,3.17-3.17,3.17Z" transform="translate(-161.07 -383.51)"/><path class="cls-2" d="M336.91,406.28a55.59,55.59,0,0,1-45.16,8C261,406.57,249,383.51,249,383.51s-12,23.07-42.76,30.76a55.59,55.59,0,0,1-45.16-8v153.1c0,5.21,2.18,27.3,43.4,33.26,16.27,2.35,28.43,7.59,37.16,16a49.53,49.53,0,0,1,7.36,8.91,50.31,50.31,0,0,1,7.35-8.91c8.75-8.4,20.9-13.64,37.18-16,41.21-6,43.39-28,43.39-33.26Z" transform="translate(-161.07 -383.51)"/><path class="cls-3" d="M291.75,414.27C261,406.57,249,383.51,249,383.51s-12,23.07-42.76,30.76a55.59,55.59,0,0,1-45.16-8V553.89l55.7-39.14v-42.7l28.39-19.95h42.72v12.69l49-34.46V406.28A55.59,55.59,0,0,1,291.75,414.27Z" transform="translate(-161.07 -383.51)"/><polygon class="cls-1" points="126.81 68.59 84.14 68.59 84.08 68.59 55.7 88.54 55.7 175.25 84.14 155.27 84.14 139.37 106.77 139.37 126.81 125.29 126.81 110.92 84.14 110.92 84.14 97.04 126.81 97.04 126.81 68.59"/><polygon class="cls-4" points="69.92 165.26 84.14 155.27 84.14 139.37 106.77 139.37 126.81 125.29 69.92 125.29 69.92 165.26"/><polygon class="cls-4" points="84.14 110.92 84.14 97.04 126.81 97.04 126.81 82.82 84.98 82.82 69.92 93.4 69.92 120.89 84.14 110.92"/></svg>